<svg class="marks" width="874" height="528" viewBox="0 0 874 528" version="1.1" xmlns="http://www.w3.org/2000/svg" xmlns:xlink="http://www.w3.org/1999/xlink"><rect width="874" height="528" style="fill: white;"></rect><g transform="translate(42,5)"><g class="mark-group role-frame root"><g transform="translate(0,0)"><path class="background" d="M0,0h700v0h-700Z" style="fill: none;"></path><g><g class="mark-group role-scope concat_0_group"><g transform="translate(0,0)"><path class="background" d="M0,0h700v300h-700Z" style="fill: none; stroke: #ddd; stroke-width: 0;"></path><g><g class="mark-group role-scope concat_0_layer_0_pathgroup"><g transform="translate(0,0)"><path class="background" d="M0,0h700v300h-700Z" style="fill: none;"></path><g><g class="mark-trail role-mark concat_0_layer_0_marks"><path d="M-6.577650335276721,143.69133742780232L19.063375305748913,134.7617044316875A20,20,0,1,1,32.218675976301896,172.53653817410586L6.5776503352762665,181.4661711702207A20,20,0,1,1,-6.577650335276718,143.69133742780232ZM38.73687576157674,138.5329475271009L90.01892704362801,182.96099310431683A20,20,0,1,1,63.827226802525345,213.19334065590837L12.545175520474078,168.76529507869245A20,20,0,0,1,38.73687576157673,138.5329475271009ZM65.55885568855733,181.61950982532807L91.85165284156275,164.85795097571588A18.85294117647059,18.85294117647059,0,1,1,113.27655228664187,195.88547501135383L88.28729815759603,214.53482393489713A20,20,0,1,1,65.55885568855733,181.61950982532807ZM99.34547154912019,161.7955507043844L150.82335217529675,154.04029596443476A17.705882352941178,17.705882352941178,0,1,1,156.86895551701042,188.93218269787806L105.78273357908444,198.94787528268532A18.85294117647059,18.85294117647059,0,1,1,99.34547154912019,161.7955507043844ZM150.81608303859517,154.04155702400686L202.29443458891043,146.26420921774042A16.558823529411764,16.558823529411764,0,1,1,207.96197566749973,178.8932993802826L156.876224653712,188.93092163830596A17.705882352941178,17.705882352941178,0,1,1,150.81608303859517,154.04155702400686ZM199.6822975712041,146.94108415417213L226.07781839774674,140.17794897563718A14.264705882352942,14.264705882352942,0,1,1,235.4606431407147,167.12029363015617L210.57411268520607,178.21642444385088A16.558823529411764,16.558823529411764,0,1,1,199.68229757120412,146.94108415417213ZM226.06738067499688,140.18158850726599L252.2755366882136,132.85410416422826A12.544117647058824,12.544117647058824,0,1,1,260.5449761322991,156.5403010192241L235.47108086346455,167.11665409852736A14.264705882352942,14.264705882352942,0,1,1,226.06738067499688,140.18158850726599ZM254.2479009020947,132.34086388644718L305.8265472538467,125.06135245980352A10.823529411764705,10.823529411764705,0,1,1,309.5580681307681,146.38436602858508L258.572611918418,157.05354129700518A12.544117647058824,12.544117647058824,0,1,1,254.2479009020947,132.3408638864472ZM302.2284306396115,126.3796886645485L317.75780907113943,117.63032381784765A10.536764705882351,10.536764705882351,0,1,1,328.3960370827063,135.82157849261998L313.1561847450033,145.0660298238401A10.823529411764705,10.823529411764705,0,1,1,302.2284306396115,126.3796886645485ZM327.8895236081935,117.35246265875921L414.28314301076705,163.6433832897935A8.816176470588236,8.816176470588236,0,1,1,406.2296775020533,179.32909537251933L318.26432254565225,136.09943965170842A10.536764705882351,10.536764705882351,0,1,1,327.8895236081935,117.35246265875921ZM408.9934602282431,162.7609929285093L470.57300187604466,154.13731491029534A8.529411764705882,8.529411764705882,0,1,1,473.016741713699,171.02019368772767L411.5193602845772,180.21148573380353A8.816176470588236,8.816176470588236,0,1,1,408.9934602282431,162.7609929285093ZM466.1741580223932,156.16326977017252L528.2001680261881,102.80487777954413A7.789558823529412,7.789558823529412,0,1,1,538.4664986404784,114.52287088327076L477.41558556735043,168.9942388278505A8.529411764705882,8.529411764705882,0,1,1,466.1741580223932,156.16326977017252ZM534.5662459165605,100.97250558278117L590.7304970578458,111.54964093700035A6.235294117647059,6.235294117647059,0,1,1,588.7566824293334,123.8630331075814L532.100420750106,116.35524308003372A7.789558823529412,7.789558823529412,0,1,1,534.5662459165605,100.97250558278117ZM587.6698494368504,111.82598891407743L613.3108750778763,102.78352622319399A6.235294117647059,6.235294117647059,0,1,1,617.4583556913547,114.5442224396209L591.8173300503288,123.58668513050434A6.235294117647059,6.235294117647059,0,1,1,587.6698494368504,111.82598891407743ZM613.4183277447206,102.74672927227961L695.4696097960026,75.48080624305125A6.235294117647059,6.235294117647059,0,1,1,699.4021850757923,87.31509636130691L617.3509030245103,114.58101939053527A6.235294117647059,6.235294117647059,0,1,1,613.4183277447206,102.74672927227961Z" style="fill: #f0b548;"></path></g></g><path class="foreground" d="" style="display: none; fill: none;"></path></g><g transform="translate(0,0)"><path class="background" d="M0,0h700v300h-700Z" style="fill: none;"></path><g><g class="mark-trail role-mark concat_0_layer_0_marks"><path d="M702.8697199889185,84.45613134852091L697.6415530307287,93.51174815172521A6.120588235294116,6.120588235294116,0,0,1,686.9738315846561,87.5079060041428L692.0020748828764,78.33977125583725A6.235294117647059,6.235294117647059,0,1,1,702.8697199889185,84.45613134852091ZM697.9785043507193,92.81275806228452L672.2843403940574,155.93047268407813A6.063235294117646,6.063235294117646,0,1,1,661.0489929392761,151.36776992171522L686.6368802646655,88.2068960935835A6.120588235294116,6.120588235294116,0,1,1,697.9785043507193,92.81275806228452ZM666.6666666666667,159.71235659701432L656.4102564102564,159.65500365583785A6.005882352941176,6.005882352941176,0,1,1,656.4102564102564,147.6432389499555L666.6666666666667,147.58588600877903A6.063235294117646,6.063235294117646,0,1,1,666.6666666666667,159.71235659701432ZM654.3014439269587,159.27260178633912L582.6878143411068,131.86612075481526A5.489705882352941,5.489705882352941,0,1,1,586.5429548896623,121.58578155565236L658.519068893554,148.02564081945422A6.005882352941176,6.005882352941176,0,1,1,654.3014439269587,159.27260178633912ZM585.4800134986458,132.1471399149959L528.7806981957265,139.33166022678438A3.6544117647058822,3.6544117647058822,0,1,1,527.6295582145294,132.1140582616042L583.7507557321233,121.30476239547173A5.489705882352941,5.489705882352941,0,1,1,585.4800134986458,132.1471399149959ZM530.2955336530354,138.720346593522L478.4229533470682,173.6369515822032A2.6220588235294118,2.6220588235294118,0,1,1,475.42320049908517,169.3355270801096L526.1147227572205,132.72537189486658A3.6544117647058822,3.6544117647058822,0,1,1,530.2955336530354,138.720346593522ZM477.59766488766996,174.0200356039602L410.73917763881116,191.04861642595955A1.8764705882352941,1.8764705882352941,0,1,1,409.77364287400917,187.42200504727458L476.2484889584834,168.95244305835263A2.6220588235294118,2.6220588235294118,0,1,1,477.59766488766996,174.0200356039602ZM410.6512886208118,191.06976241105266L328.55172990428923,208.50759164405804A1.6470588235294117,1.6470588235294117,0,1,1,327.85852650596667,205.28723760743128L409.86153189200854,187.40085906218147A1.8764705882352941,1.8764705882352941,0,1,1,410.6512886208118,191.06976241105266ZM328.20512820512795,208.54447344927408L266.66666666666674,208.54447344927408A1.6470588235294117,1.6470588235294117,0,1,1,266.66666666666674,205.25035580221524L328.20512820512795,205.25035580221524A1.6470588235294117,1.6470588235294117,0,1,1,328.20512820512795,208.54447344927408ZM267.05876839588444,208.49712053687662L231.16133249844844,217.2958919810022A1.6470588235294117,1.6470588235294117,0,1,1,230.377129040013,214.09648015873827L266.27456493744904,205.2977087146127A1.6470588235294117,1.6470588235294117,0,1,1,267.05876839588444,208.49712053687662ZM229.69680782408318,216.94627078495446L219.4403975676728,208.1474993408289A1.6470588235294117,1.6470588235294117,0,1,1,221.58524345796786,205.64732991066043L231.84165371437825,214.446101354786A1.6470588235294117,1.6470588235294117,0,1,1,229.69680782408318,216.94627078495446Z" style="fill: #b6fade;"></path></g></g><path class="foreground" d="" style="display: none; fill: none;"></path></g><g transform="translate(0,0)"><path class="background" d="M0,0h700v300h-700Z" style="fill: none;"></path><g><g class="mark-trail role-mark concat_0_layer_0_marks"><path d="M-1.3019673013105877,140.97728953916206L24.33905833971505,132.00294619163017A3.9411764705882355,3.9411764705882355,0,1,1,26.942992942335767,139.44277229675842L1.301967301310133,148.4171156442903A3.9411764705882355,3.9411764705882355,0,1,1,-1.3019673013105877,140.97728953916206ZM28.22898183266478,132.7504267853361L79.51103311471604,177.39928053467665A3.9411764705882355,3.9411764705882355,0,1,1,74.3351207314373,183.34414545239306L23.053069449386037,138.6952917030525A3.9411764705882355,3.9411764705882355,0,1,1,28.22898183266478,132.7504267853361ZM73.5850889970099,178.2763112235273L130.96684935589786,89.02428104695849A2.7941176470588234,2.7941176470588234,0,1,1,135.69981731076865,91.99537310890952L80.26106484914345,182.4671147635424A3.9411764705882355,3.9411764705882355,0,1,1,73.5850889970099,178.2763112235273ZM133.9376744537061,87.78184884564695L174.87648120257762,97.26240850943205A2.3926470588235293,2.3926470588235293,0,1,1,173.84146751537062,101.93443017672789L132.7289922129604,93.23780531022106A2.7941176470588234,2.7941176470588234,0,1,1,133.9376744537061,87.78184884564695ZM174.68136386384526,97.22759143805484L241.32484701971305,106.46353620197416A2.2205882352941178,2.2205882352941178,0,1,1,240.7264350315687,110.86421246084072L174.036584854103,101.96924724810509A2.3926470588235293,2.3926470588235293,0,1,1,174.68136386384526,97.22759143805484Z" style="fill: #f0b548;"></path></g></g><path class="foreground" d="" style="display: none; fill: none;"></path></g><g transform="translate(0,0)"><path class="background" d="M0,0h700v300h-700Z" style="fill: none;"></path><g><g class="mark-trail role-mark concat_0_layer_0_marks"><path d="M243.18512659505691,108.14654060332612L268.8261522360828,215.1788523417889A2.2205882352941178,2.2205882352941178,0,1,1,264.5071810972507,216.21351979795156L238.86615545622485,109.18120805948877A2.2205882352941178,2.2205882352941178,0,0,1,243.18512659505691,108.14654060332612ZM267.19409380807866,217.85322865666095L231.2966579106426,226.63065480269316A2.2205882352941178,2.2205882352941178,0,1,1,230.24180362781883,222.31656962911174L266.1392395252548,213.53914348307953A2.2205882352941178,2.2205882352941178,0,1,1,267.19409380807866,217.85322865666095ZM229.32539848686457,226.1607282318077L219.14357029537112,217.2961530465433A2.1058823529411765,2.1058823529411765,0,1,1,221.88207073026953,214.09621909319716L232.21306305159686,222.7864961999972A2.2205882352941178,2.2205882352941178,0,1,1,229.32539848686457,226.1607282318077ZM219.68181460201836,217.6311717702415L178.8372307301274,199.5905635172745A1.6470588235294117,1.6470588235294117,0,1,1,180.13712824423104,196.5637702429507L221.3438264236223,213.76120036949897A2.1058823529411765,2.1058823529411765,0,1,1,219.68181460201836,217.6311717702415ZM180.2128826853739,199.55573295448875L144.11328661129815,216.76286588067018A1.188235294117647,1.188235294117647,0,1,1,143.0662005681887,214.6295062590703L178.76147628898454,196.59860080573645A1.6470588235294117,1.6470588235294117,0,1,1,180.2128826853739,199.55573295448875ZM143.12133466849315,216.78820081184034L122.56329646277963,208.09484663240988A1.3029411764705883,1.3029411764705883,0,1,1,123.5905496910661,205.69998261907944L144.0581525109937,214.60417132790013A1.188235294117647,1.188235294117647,0,1,1,143.12133466849315,216.78820081184034ZM122.95298804790313,208.1944480940578L30.678028016498363,199.03164297643335A0.9588235294117646,0.9588235294117646,0,1,1,30.86043352196307,197.12269078379185L123.2008581059426,205.6003811574315A1.3029411764705883,1.3029411764705883,0,1,1,122.95298804790313,208.1944480940578ZM31.394410561727845,198.8041419743262L20.988417410179878,207.45045089373536A0.7294117647058824,0.7294117647058824,0,1,1,20.03722361546032,206.34437835775395L30.14405097673359,197.350191785899A0.9588235294117646,0.9588235294117646,0,1,1,31.394410561727845,198.8041419743262ZM20.5128205128201,207.62682639045053L10.256410256409936,207.62682639045053A0.7294117647058824,0.7294117647058824,0,1,1,10.256410256409936,206.1680028610388L20.5128205128201,206.1680028610388A0.7294117647058824,0.7294117647058824,0,1,1,20.5128205128201,207.62682639045053ZM10.886598223188457,207.26470830799212L5.758393094983376,216.0634797521177A0.7294117647058824,0.7294117647058824,0,1,1,4.498017161426333,215.32889238762277L9.626222289631414,206.5301209434972A0.7294117647058824,0.7294117647058824,0,1,1,10.886598223188457,207.26470830799212Z" style="fill: #b6fade;"></path></g></g><path class="foreground" d="" style="display: none; fill: none;"></path></g><g transform="translate(0,0)"><path class="background" d="M0,0h700v300h-700Z" style="fill: none;"></path><g><g class="mark-trail role-mark concat_0_layer_0_marks"><path d="M-0.5833019370219307,134.0604592534702L25.057723704003706,125.06355116450972A1.761764705882353,1.761764705882353,0,1,1,26.22432757804711,128.3883511459579L0.5833019370214759,137.38525923491838A1.761764705882353,1.761764705882353,0,1,1,-0.5833019370219301,134.0604592534702ZM23.890428814845908,126.52789653887005L29.930464009441874,81.30305702021514A0.8441176470588234,0.8441176470588234,0,1,1,31.60799752901956,81.49284558414303L27.391622467204908,126.92400577159758A1.761764705882353,1.761764705882353,0,1,1,23.890428814845908,126.52789653887005Z" style="fill: #f0b548;"></path></g></g><path class="foreground" d="" style="display: none; fill: none;"></path></g><g transform="translate(0,0)"><path class="background" d="M0,0h700v300h-700Z" style="fill: none;"></path><g><g class="mark-trail role-mark concat_0_layer_0_marks"><path d="M31.60229381937546,81.5341150145244L11.08947330655468,207.03357833808997A0.8441176470588234,0.8441176470588234,0,1,1,9.423347206265191,206.76125091339935L29.936167719085972,81.26178758983376A0.8441176470588234,0.8441176470588234,0,1,1,31.60229381937546,81.5341150145244ZM10.985700363125401,207.32246820157135L5.85749523492032,216.12123964569693A0.8441176470588234,0.8441176470588234,0,1,1,4.398915021489389,215.27113249404354L9.52712014969447,206.47236104991796A0.8441176470588234,0.8441176470588234,0,1,1,10.985700363125401,207.32246820157135Z" style="fill: #b6fade;"></path></g></g><path class="foreground" d="" style="display: none; fill: none;"></path></g></g><g class="mark-text role-mark concat_0_layer_1_marks"><text text-anchor="middle" transform="translate(-10.000000000000227,155.64912130289667)" style="font-family: sans-serif; font-size: 8px; fill: black;">Kowno</text><text text-anchor="middle" transform="translate(56.666666666666515,182.37171299353486)" style="font-family: sans-serif; font-size: 8px; fill: black;">Wilna</text><text text-anchor="middle" transform="translate(113.07692307692287,208.89741462574466)" style="font-family: sans-serif; font-size: 8px; fill: black;">Smorgoni</text><text text-anchor="middle" transform="translate(133.58974358974342,217.69618606987024)" style="font-family: sans-serif; font-size: 8px; fill: black;">Molodexno</text><text text-anchor="middle" transform="translate(179.7435897435896,137.7228592441943)" style="font-family: sans-serif; font-size: 8px; fill: black;">Gloubokoe</text><text text-anchor="middle" transform="translate(174.61538461538453,252.67911276158975)" style="font-family: sans-serif; font-size: 8px; fill: black;">Minsk</text><text text-anchor="middle" transform="translate(220.76923076923072,217.69618606987024)" style="font-family: sans-serif; font-size: 8px; fill: black;">Studienska</text><text text-anchor="middle" transform="translate(231.02564102564088,110.66387433140744)" style="font-family: sans-serif; font-size: 8px; fill: black;">Polotzk</text><text text-anchor="middle" transform="translate(256.66666666666674,208.89741462574466)" style="font-family: sans-serif; font-size: 8px; fill: black;">Bobr</text><text text-anchor="middle" transform="translate(307.9487179487178,128.72595115523382)" style="font-family: sans-serif; font-size: 8px; fill: black;">Witebsk</text><text text-anchor="middle" transform="translate(318.20512820512795,200.0771668801126)" style="font-family: sans-serif; font-size: 8px; fill: black;">Orscha</text><text text-anchor="middle" transform="translate(318.20512820512795,252.67911276158975)" style="font-family: sans-serif; font-size: 8px; fill: black;">Mohilow</text><text text-anchor="middle" transform="translate(400.25641025641016,173.4862393311564)" style="font-family: sans-serif; font-size: 8px; fill: black;">Smolensk</text><text text-anchor="middle" transform="translate(461.7948717948718,164.5787542990115)" style="font-family: sans-serif; font-size: 8px; fill: black;">Dorogobouge</text><text text-anchor="middle" transform="translate(518.205128205128,137.7228592441943)" style="font-family: sans-serif; font-size: 8px; fill: black;">Wixma</text><text text-anchor="middle" transform="translate(523.3333333333333,110.66387433140744)" style="font-family: sans-serif; font-size: 8px; fill: black;">Chjat</text><text text-anchor="middle" transform="translate(523.3333333333333,110.66387433140744)" style="font-family: sans-serif; font-size: 8px; fill: black;">Chjat</text><text text-anchor="middle" transform="translate(605.3846153846155,110.66387433140744)" style="font-family: sans-serif; font-size: 8px; fill: black;">Mojaisk</text><text text-anchor="middle" transform="translate(687.4358974358975,83.39795130217908)" style="font-family: sans-serif; font-size: 8px; fill: black;">Moscou</text><text text-anchor="middle" transform="translate(636.1538461538462,128.72595115523382)" style="font-family: sans-serif; font-size: 8px; fill: black;">Tarantino</text><text text-anchor="middle" transform="translate(631.0256410256411,155.64912130289667)" style="font-family: sans-serif; font-size: 8px; fill: black;">Malo-jarosewli</text></g><g class="mark-text role-mark concat_0_layer_2_marks"><text text-anchor="middle" transform="translate(7.692307692307395,131.22723459557392) rotate(280) translate(-5,-3)" style="font-family: sans-serif; font-size: 8px; fill: black;">340000</text><text text-anchor="middle" transform="translate(110.25641025640994,149.17595631668883) rotate(280) translate(-5,-3)" style="font-family: sans-serif; font-size: 8px; fill: black;">320000</text><text text-anchor="middle" transform="translate(161.53846153846143,140.21284272616822) rotate(280) translate(-5,-3)" style="font-family: sans-serif; font-size: 8px; fill: black;">300000</text><text text-anchor="middle" transform="translate(212.82051282051248,131.22723459557392) rotate(280) translate(-5,-3)" style="font-family: sans-serif; font-size: 8px; fill: black;">280000</text><text text-anchor="middle" transform="translate(238.4615384615381,122.21899122282457) rotate(280) translate(-5,-3)" style="font-family: sans-serif; font-size: 8px; fill: black;">240000</text><text text-anchor="middle" transform="translate(264.102564102564,113.18797070141954) rotate(280) translate(-5,-3)" style="font-family: sans-serif; font-size: 8px; fill: black;">210000</text><text text-anchor="middle" transform="translate(315.38461538461524,104.13402990640589) rotate(280) translate(-5,-3)" style="font-family: sans-serif; font-size: 8px; fill: black;">180000</text><text text-anchor="middle" transform="translate(330.7692307692307,95.05702448014836) rotate(280) translate(-5,-3)" style="font-family: sans-serif; font-size: 8px; fill: black;">175000</text><text text-anchor="middle" transform="translate(417.9487179487178,140.21284272616822) rotate(280) translate(-5,-3)" style="font-family: sans-serif; font-size: 8px; fill: black;">145000</text><text text-anchor="middle" transform="translate(479.48717948717945,131.22723459557392) rotate(280) translate(-5,-3)" style="font-family: sans-serif; font-size: 8px; fill: black;">140000</text><text text-anchor="middle" transform="translate(541.0256410256407,76.83323605313035) rotate(280) translate(-5,-3)" style="font-family: sans-serif; font-size: 8px; fill: black;">127100</text><text text-anchor="middle" transform="translate(597.4358974358972,85.95680881789758) rotate(280) translate(-5,-3)" style="font-family: sans-serif; font-size: 8px; fill: black;">100000</text><text text-anchor="middle" transform="translate(700,110.47420163595234) rotate(280) translate(-5,-3)" style="font-family: sans-serif; font-size: 8px; fill: black;">98000</text><text text-anchor="middle" transform="translate(674.3589743589744,173.26509062241166) rotate(280) translate(-5,-3)" style="font-family: sans-serif; font-size: 8px; fill: black;">97000</text><text text-anchor="middle" transform="translate(664.102564102564,173.26509062241166) rotate(280) translate(-5,-3)" style="font-family: sans-serif; font-size: 8px; fill: black;">96000</text><text text-anchor="middle" transform="translate(592.3076923076922,146.48937584242958) rotate(280) translate(-5,-3)" style="font-family: sans-serif; font-size: 8px; fill: black;">87000</text><text text-anchor="middle" transform="translate(535.8974358974356,155.43682633452318) rotate(280) translate(-5,-3)" style="font-family: sans-serif; font-size: 8px; fill: black;">55000</text><text text-anchor="middle" transform="translate(484.6153846153845,191.00541701480915) rotate(280) translate(-5,-3)" style="font-family: sans-serif; font-size: 8px; fill: black;">37000</text><text text-anchor="middle" transform="translate(417.9487179487178,208.65888281092066) rotate(280) translate(-5,-3)" style="font-family: sans-serif; font-size: 8px; fill: black;">24000</text><text text-anchor="middle" transform="translate(335.89743589743557,226.2265474614228) rotate(280) translate(-5,-3)" style="font-family: sans-serif; font-size: 8px; fill: black;">20000</text><text text-anchor="middle" transform="translate(15.384615384615245,113.18797070141954) rotate(280) translate(-5,-3)" style="font-family: sans-serif; font-size: 8px; fill: black;">60000</text><text text-anchor="middle" transform="translate(148.71794871794873,58.515425351756676) rotate(280) translate(-5,-3)" style="font-family: sans-serif; font-size: 8px; fill: black;">40000</text><text text-anchor="middle" transform="translate(189.7435897435896,67.68615804270439) rotate(280) translate(-5,-3)" style="font-family: sans-serif; font-size: 8px; fill: black;">33000</text><text text-anchor="middle" transform="translate(256.41025641025635,76.83323605313035) rotate(280) translate(-5,-3)" style="font-family: sans-serif; font-size: 8px; fill: black;">30000</text><text text-anchor="middle" transform="translate(235.8974358974358,234.9785306534891) rotate(280) translate(-5,-3)" style="font-family: sans-serif; font-size: 8px; fill: black;">28000</text><text text-anchor="middle" transform="translate(158.9743589743589,234.9785306534891) rotate(280) translate(-5,-3)" style="font-family: sans-serif; font-size: 8px; fill: black;">12000</text><text text-anchor="middle" transform="translate(138.4615384615381,226.2265474614228) rotate(280) translate(-5,-3)" style="font-family: sans-serif; font-size: 8px; fill: black;">14000</text><text text-anchor="middle" transform="translate(46.15384615384596,217.4533747499122) rotate(280) translate(-5,-3)" style="font-family: sans-serif; font-size: 8px; fill: black;">8000</text><text text-anchor="middle" transform="translate(35.89743589743557,226.2265474614228) rotate(280) translate(-5,-3)" style="font-family: sans-serif; font-size: 8px; fill: black;">4000</text><text text-anchor="middle" transform="translate(23.076923076922867,104.13402990640589) rotate(280) translate(-5,-3)" style="font-family: sans-serif; font-size: 8px; fill: black;">22000</text><text text-anchor="middle" transform="translate(53.846153846153584,49.320887238410705) rotate(280) translate(-5,-3)" style="font-family: sans-serif; font-size: 8px; fill: black;">6000</text></g></g><path class="foreground" d="" style="display: none; fill: none;"></path></g></g><g class="mark-group role-scope concat_1_group"><g transform="translate(0,336)"><path class="background" d="M0,0h700v150h-700Z" style="fill: none; stroke: #ddd; stroke-width: 0;"></path><g><g class="mark-group role-axis"><g transform="translate(0.5,150.5)"><path class="background" d="M0,0h0v0h0Z" style="pointer-events: none; fill: none;"></path><g><g class="mark-rule role-axis-grid" style="pointer-events: none;"><line transform="translate(0,-150)" x2="0" y2="150" style="fill: none; stroke: #ddd; stroke-width: 1; opacity: 1;"></line><line transform="translate(54,-150)" x2="0" y2="150" style="fill: none; stroke: #ddd; stroke-width: 1; opacity: 1;"></line><line transform="translate(108,-150)" x2="0" y2="150" style="fill: none; stroke: #ddd; stroke-width: 1; opacity: 1;"></line><line transform="translate(162,-150)" x2="0" y2="150" style="fill: none; stroke: #ddd; stroke-width: 1; opacity: 1;"></line><line transform="translate(215,-150)" x2="0" y2="150" style="fill: none; stroke: #ddd; stroke-width: 1; opacity: 1;"></line><line transform="translate(269,-150)" x2="0" y2="150" style="fill: none; stroke: #ddd; stroke-width: 1; opacity: 1;"></line><line transform="translate(323,-150)" x2="0" y2="150" style="fill: none; stroke: #ddd; stroke-width: 1; opacity: 1;"></line><line transform="translate(377,-150)" x2="0" y2="150" style="fill: none; stroke: #ddd; stroke-width: 1; opacity: 1;"></line><line transform="translate(431,-150)" x2="0" y2="150" style="fill: none; stroke: #ddd; stroke-width: 1; opacity: 1;"></line><line transform="translate(485,-150)" x2="0" y2="150" style="fill: none; stroke: #ddd; stroke-width: 1; opacity: 1;"></line><line transform="translate(538,-150)" x2="0" y2="150" style="fill: none; stroke: #ddd; stroke-width: 1; opacity: 1;"></line><line transform="translate(592,-150)" x2="0" y2="150" style="fill: none; stroke: #ddd; stroke-width: 1; opacity: 1;"></line><line transform="translate(646,-150)" x2="0" y2="150" style="fill: none; stroke: #ddd; stroke-width: 1; opacity: 1;"></line><line transform="translate(700,-150)" x2="0" y2="150" style="fill: none; stroke: #ddd; stroke-width: 1; opacity: 1;"></line></g></g><path class="foreground" d="" style="pointer-events: none; display: none; fill: none;"></path></g></g><g class="mark-group role-axis"><g transform="translate(0.5,0.5)"><path class="background" d="M0,0h0v0h0Z" style="pointer-events: none; fill: none;"></path><g><g class="mark-rule role-axis-grid" style="pointer-events: none;"><line transform="translate(0,150)" x2="700" y2="0" style="fill: none; stroke: #ddd; stroke-width: 1; opacity: 1;"></line><line transform="translate(0,100)" x2="700" y2="0" style="fill: none; stroke: #ddd; stroke-width: 1; opacity: 1;"></line><line transform="translate(0,50)" x2="700" y2="0" style="fill: none; stroke: #ddd; stroke-width: 1; opacity: 1;"></line><line transform="translate(0,0)" x2="700" y2="0" style="fill: none; stroke: #ddd; stroke-width: 1; opacity: 1;"></line></g></g><path class="foreground" d="" style="pointer-events: none; display: none; fill: none;"></path></g></g><g class="mark-group role-axis"><g transform="translate(0.5,150.5)"><path class="background" d="M0,0h0v0h0Z" style="pointer-events: none; fill: none;"></path><g><g class="mark-rule role-axis-tick" style="pointer-events: none;"><line transform="translate(0,0)" x2="0" y2="5" style="fill: none; stroke: #888; stroke-width: 1; opacity: 1;"></line><line transform="translate(54,0)" x2="0" y2="5" style="fill: none; stroke: #888; stroke-width: 1; opacity: 1;"></line><line transform="translate(108,0)" x2="0" y2="5" style="fill: none; stroke: #888; stroke-width: 1; opacity: 1;"></line><line transform="translate(162,0)" x2="0" y2="5" style="fill: none; stroke: #888; stroke-width: 1; opacity: 1;"></line><line transform="translate(215,0)" x2="0" y2="5" style="fill: none; stroke: #888; stroke-width: 1; opacity: 1;"></line><line transform="translate(269,0)" x2="0" y2="5" style="fill: none; stroke: #888; stroke-width: 1; opacity: 1;"></line><line transform="translate(323,0)" x2="0" y2="5" style="fill: none; stroke: #888; stroke-width: 1; opacity: 1;"></line><line transform="translate(377,0)" x2="0" y2="5" style="fill: none; stroke: #888; stroke-width: 1; opacity: 1;"></line><line transform="translate(431,0)" x2="0" y2="5" style="fill: none; stroke: #888; stroke-width: 1; opacity: 1;"></line><line transform="translate(485,0)" x2="0" y2="5" style="fill: none; stroke: #888; stroke-width: 1; opacity: 1;"></line><line transform="translate(538,0)" x2="0" y2="5" style="fill: none; stroke: #888; stroke-width: 1; opacity: 1;"></line><line transform="translate(592,0)" x2="0" y2="5" style="fill: none; stroke: #888; stroke-width: 1; opacity: 1;"></line><line transform="translate(646,0)" x2="0" y2="5" style="fill: none; stroke: #888; stroke-width: 1; opacity: 1;"></line><line transform="translate(700,0)" x2="0" y2="5" style="fill: none; stroke: #888; stroke-width: 1; opacity: 1;"></line></g><g class="mark-text role-axis-label" style="pointer-events: none;"><text text-anchor="start" transform="translate(0,15)" style="font-family: sans-serif; font-size: 10px; fill: #000; opacity: 1;">25</text><text text-anchor="middle" transform="translate(53.84615384615385,15)" style="font-family: sans-serif; font-size: 10px; fill: #000; opacity: 1;">26</text><text text-anchor="middle" transform="translate(107.6923076923077,15)" style="font-family: sans-serif; font-size: 10px; fill: #000; opacity: 1;">27</text><text text-anchor="middle" transform="translate(161.53846153846155,15)" style="font-family: sans-serif; font-size: 10px; fill: #000; opacity: 1;">28</text><text text-anchor="middle" transform="translate(215.3846153846154,15)" style="font-family: sans-serif; font-size: 10px; fill: #000; opacity: 1;">29</text><text text-anchor="middle" transform="translate(269.2307692307692,15)" style="font-family: sans-serif; font-size: 10px; fill: #000; opacity: 1;">30</text><text text-anchor="middle" transform="translate(323.0769230769231,15)" style="font-family: sans-serif; font-size: 10px; fill: #000; opacity: 1;">31</text><text text-anchor="middle" transform="translate(376.9230769230769,15)" style="font-family: sans-serif; font-size: 10px; fill: #000; opacity: 1;">32</text><text text-anchor="middle" transform="translate(430.7692307692308,15)" style="font-family: sans-serif; font-size: 10px; fill: #000; opacity: 1;">33</text><text text-anchor="middle" transform="translate(484.6153846153846,15)" style="font-family: sans-serif; font-size: 10px; fill: #000; opacity: 1;">34</text><text text-anchor="middle" transform="translate(538.4615384615385,15)" style="font-family: sans-serif; font-size: 10px; fill: #000; opacity: 1;">35</text><text text-anchor="middle" transform="translate(592.3076923076923,15)" style="font-family: sans-serif; font-size: 10px; fill: #000; opacity: 1;">36</text><text text-anchor="middle" transform="translate(646.1538461538462,15)" style="font-family: sans-serif; font-size: 10px; fill: #000; opacity: 1;">37</text><text text-anchor="end" transform="translate(700,15)" style="font-family: sans-serif; font-size: 10px; fill: #000; opacity: 1;">38</text></g><g class="mark-rule role-axis-domain" style="pointer-events: none;"><line transform="translate(0,0)" x2="700" y2="0" style="fill: none; stroke: #888; stroke-width: 1; opacity: 1;"></line></g><g class="mark-text role-axis-title" style="pointer-events: none;"><text text-anchor="middle" transform="translate(350,30)" style="font-family: sans-serif; font-size: 11px; font-weight: bold; fill: #000; opacity: 1;">Longitude</text></g></g><path class="foreground" d="" style="pointer-events: none; display: none; fill: none;"></path></g></g><g class="mark-group role-axis"><g transform="translate(0.5,0.5)"><path class="background" d="M0,0h0v0h0Z" style="pointer-events: none; fill: none;"></path><g><g class="mark-rule role-axis-tick" style="pointer-events: none;"><line transform="translate(0,150)" x2="-5" y2="0" style="fill: none; stroke: #888; stroke-width: 1; opacity: 1;"></line><line transform="translate(0,100)" x2="-5" y2="0" style="fill: none; stroke: #888; stroke-width: 1; opacity: 1;"></line><line transform="translate(0,50)" x2="-5" y2="0" style="fill: none; stroke: #888; stroke-width: 1; opacity: 1;"></line><line transform="translate(0,0)" x2="-5" y2="0" style="fill: none; stroke: #888; stroke-width: 1; opacity: 1;"></line></g><g class="mark-text role-axis-label" style="pointer-events: none;"><text text-anchor="end" transform="translate(-7,153)" style="font-family: sans-serif; font-size: 10px; fill: #000; opacity: 1;">-30</text><text text-anchor="end" transform="translate(-7,103.00000000000001)" style="font-family: sans-serif; font-size: 10px; fill: #000; opacity: 1;">-20</text><text text-anchor="end" transform="translate(-7,53.00000000000001)" style="font-family: sans-serif; font-size: 10px; fill: #000; opacity: 1;">-10</text><text text-anchor="end" transform="translate(-7,3)" style="font-family: sans-serif; font-size: 10px; fill: #000; opacity: 1;">0</text></g><g class="mark-rule role-axis-domain" style="pointer-events: none;"><line transform="translate(0,150)" x2="0" y2="-150" style="fill: none; stroke: #888; stroke-width: 1; opacity: 1;"></line></g><g class="mark-text role-axis-title" style="pointer-events: none;"><text text-anchor="middle" transform="translate(-25.453125,75) rotate(-90) translate(0,-2)" style="font-family: sans-serif; font-size: 11px; font-weight: bold; fill: #000; opacity: 1;">Temperature</text></g></g><path class="foreground" d="" style="pointer-events: none; display: none; fill: none;"></path></g></g><g class="mark-line role-mark concat_1_layer_0_marks"><path d="M16.153846153846192,130L91.5384615384615,150L118.46153846153842,120L188.46153846153845,100.00000000000001L226.15384615384613,55.00000000000001L376.9230769230769,105L441.53846153846166,45.00000000000001L592.3076923076923,0L678.4615384615386,0" style="fill: none; stroke: #ff0505; stroke-width: 2;"></path></g><g class="mark-text role-mark concat_1_layer_1_marks"><text text-anchor="middle" transform="translate(678.4615384615386,-10)" style="font-family: sans-serif; font-size: 8px; fill: black;">0</text><text text-anchor="middle" transform="translate(592.3076923076923,-10)" style="font-family: sans-serif; font-size: 8px; fill: black;">0</text><text text-anchor="middle" transform="translate(441.53846153846166,35.00000000000001)" style="font-family: sans-serif; font-size: 8px; fill: black;">-9</text><text text-anchor="middle" transform="translate(376.9230769230769,95)" style="font-family: sans-serif; font-size: 8px; fill: black;">-21</text><text text-anchor="middle" transform="translate(226.15384615384613,45.00000000000001)" style="font-family: sans-serif; font-size: 8px; fill: black;">-11</text><text text-anchor="middle" transform="translate(188.46153846153845,90.00000000000001)" style="font-family: sans-serif; font-size: 8px; fill: black;">-20</text><text text-anchor="middle" transform="translate(118.46153846153842,110)" style="font-family: sans-serif; font-size: 8px; fill: black;">-24</text><text text-anchor="middle" transform="translate(91.5384615384615,140)" style="font-family: sans-serif; font-size: 8px; fill: black;">-30</text><text text-anchor="middle" transform="translate(16.153846153846192,120)" style="font-family: sans-serif; font-size: 8px; fill: black;">-26</text></g></g><path class="foreground" d="" style="display: none; fill: none;"></path></g></g><g class="mark-group role-legend"><g transform="translate(722,0)"><path class="background" d="M0,0h48v40h-48Z" style="pointer-events: none; fill: none;"></path><g><g class="mark-group role-legend-entry"><g transform="translate(0,16)"><path class="background" d="M0,0h0v0h0Z" style="pointer-events: none; fill: none;"></path><g><g class="mark-group role-scope"><g transform="translate(0,0)"><path class="background" d="M0,0h23.2216796875v11h-23.2216796875Z" style="pointer-events: none; fill: none; opacity: 1;"></path><g><g class="mark-symbol role-legend-symbol" style="pointer-events: none;"><path transform="translate(6,6)" d="M-5,0L5,0" style="fill: #f0b548; stroke-width: 1.5; opacity: 1;"></path></g><g class="mark-text role-legend-label" style="pointer-events: none;"><text text-anchor="start" transform="translate(16,9)" style="font-family: sans-serif; font-size: 10px; fill: #000; opacity: 1;">A</text></g></g><path class="foreground" d="" style="pointer-events: none; display: none; fill: none;"></path></g><g transform="translate(0,13)"><path class="background" d="M0,0h23.2216796875v11h-23.2216796875Z" style="pointer-events: none; fill: none; opacity: 1;"></path><g><g class="mark-symbol role-legend-symbol" style="pointer-events: none;"><path transform="translate(6,6)" d="M-5,0L5,0" style="fill: #b6fade; stroke-width: 1.5; opacity: 1;"></path></g><g class="mark-text role-legend-label" style="pointer-events: none;"><text text-anchor="start" transform="translate(16,9)" style="font-family: sans-serif; font-size: 10px; fill: #000; opacity: 1;">R</text></g></g><path class="foreground" d="" style="pointer-events: none; display: none; fill: none;"></path></g></g></g><path class="foreground" d="" style="pointer-events: none; display: none; fill: none;"></path></g></g><g class="mark-text role-legend-title" style="pointer-events: none;"><text text-anchor="start" transform="translate(0,9)" style="font-family: sans-serif; font-size: 11px; font-weight: bold; fill: #000; opacity: 1;">Direction</text></g></g><path class="foreground" d="" style="pointer-events: none; display: none; fill: none;"></path></g></g><g class="mark-group role-legend"><g transform="translate(722,48)"><path class="background" d="M0,0h105v98h-105Z" style="pointer-events: none; fill: none;"></path><g><g class="mark-group role-legend-entry"><g transform="translate(0,16)"><path class="background" d="M0,0h0v0h0Z" style="pointer-events: none; fill: none;"></path><g><g class="mark-group role-scope"><g transform="translate(0,0)"><path class="background" d="M0,0h50.1474609375v10h-50.1474609375Z" style="pointer-events: none; fill: none; opacity: 1;"></path><g><g class="mark-symbol role-legend-symbol" style="pointer-events: none;"><path transform="translate(5,5)" d="M-0.5,0L0.5,0" style="fill: black; fill-opacity: 1; stroke: none; stroke-width: 1.5; opacity: 1;"></path></g><g class="mark-text role-legend-label" style="pointer-events: none;"><text text-anchor="start" transform="translate(14,8)" style="font-family: sans-serif; font-size: 10px; fill: #000; opacity: 1;">0</text></g></g><path class="foreground" d="" style="pointer-events: none; display: none; fill: none;"></path></g><g transform="translate(0,12)"><path class="background" d="M0,0h50.1474609375v10h-50.1474609375Z" style="pointer-events: none; fill: none; opacity: 1;"></path><g><g class="mark-symbol role-legend-symbol" style="pointer-events: none;"><path transform="translate(5,5)" d="M-1.2976222599091636,0L1.2976222599091636,0" style="fill: black; fill-opacity: 1; stroke: none; stroke-width: 1.5; opacity: 1;"></path></g><g class="mark-text role-legend-label" style="pointer-events: none;"><text text-anchor="start" transform="translate(14,8)" style="font-family: sans-serif; font-size: 10px; fill: #000; opacity: 1;">50,000</text></g></g><path class="foreground" d="" style="pointer-events: none; display: none; fill: none;"></path></g><g transform="translate(0,24)"><path class="background" d="M0,0h50.1474609375v10h-50.1474609375Z" style="pointer-events: none; fill: none; opacity: 1;"></path><g><g class="mark-symbol role-legend-symbol" style="pointer-events: none;"><path transform="translate(5,5)" d="M-1.7656860023298393,0L1.7656860023298393,0" style="fill: black; fill-opacity: 1; stroke: none; stroke-width: 1.5; opacity: 1;"></path></g><g class="mark-text role-legend-label" style="pointer-events: none;"><text text-anchor="start" transform="translate(14,8)" style="font-family: sans-serif; font-size: 10px; fill: #000; opacity: 1;">100,000</text></g></g><path class="foreground" d="" style="pointer-events: none; display: none; fill: none;"></path></g><g transform="translate(0,36)"><path class="background" d="M0,0h50.1474609375v10h-50.1474609375Z" style="pointer-events: none; fill: none; opacity: 1;"></path><g><g class="mark-symbol role-legend-symbol" style="pointer-events: none;"><path transform="translate(5,5)" d="M-2.133417584120674,0L2.133417584120674,0" style="fill: black; fill-opacity: 1; stroke: none; stroke-width: 1.5; opacity: 1;"></path></g><g class="mark-text role-legend-label" style="pointer-events: none;"><text text-anchor="start" transform="translate(14,8)" style="font-family: sans-serif; font-size: 10px; fill: #000; opacity: 1;">150,000</text></g></g><path class="foreground" d="" style="pointer-events: none; display: none; fill: none;"></path></g><g transform="translate(0,48)"><path class="background" d="M0,0h50.1474609375v10h-50.1474609375Z" style="pointer-events: none; fill: none; opacity: 1;"></path><g><g class="mark-symbol role-legend-symbol" style="pointer-events: none;"><path transform="translate(5,5)" d="M-2.446486075506472,0L2.446486075506472,0" style="fill: black; fill-opacity: 1; stroke: none; stroke-width: 1.5; opacity: 1;"></path></g><g class="mark-text role-legend-label" style="pointer-events: none;"><text text-anchor="start" transform="translate(14,8)" style="font-family: sans-serif; font-size: 10px; fill: #000; opacity: 1;">200,000</text></g></g><path class="foreground" d="" style="pointer-events: none; display: none; fill: none;"></path></g><g transform="translate(0,60)"><path class="background" d="M0,0h50.1474609375v10h-50.1474609375Z" style="pointer-events: none; fill: none; opacity: 1;"></path><g><g class="mark-symbol role-legend-symbol" style="pointer-events: none;"><path transform="translate(5,5)" d="M-2.7238057285824966,0L2.7238057285824966,0" style="fill: black; fill-opacity: 1; stroke: none; stroke-width: 1.5; opacity: 1;"></path></g><g class="mark-text role-legend-label" style="pointer-events: none;"><text text-anchor="start" transform="translate(14,8)" style="font-family: sans-serif; font-size: 10px; fill: #000; opacity: 1;">250,000</text></g></g><path class="foreground" d="" style="pointer-events: none; display: none; fill: none;"></path></g><g transform="translate(0,72)"><path class="background" d="M0,0h50.1474609375v10h-50.1474609375Z" style="pointer-events: none; fill: none; opacity: 1;"></path><g><g class="mark-symbol role-legend-symbol" style="pointer-events: none;"><path transform="translate(5,5)" d="M-2.975389247891877,0L2.975389247891877,0" style="fill: black; fill-opacity: 1; stroke: none; stroke-width: 1.5; opacity: 1;"></path></g><g class="mark-text role-legend-label" style="pointer-events: none;"><text text-anchor="start" transform="translate(14,8)" style="font-family: sans-serif; font-size: 10px; fill: #000; opacity: 1;">300,000</text></g></g><path class="foreground" d="" style="pointer-events: none; display: none; fill: none;"></path></g></g></g><path class="foreground" d="" style="pointer-events: none; display: none; fill: none;"></path></g></g><g class="mark-text role-legend-title" style="pointer-events: none;"><text text-anchor="start" transform="translate(0,9)" style="font-family: sans-serif; font-size: 11px; font-weight: bold; fill: #000; opacity: 1;">NumberOfSurvivors</text></g></g><path class="foreground" d="" style="pointer-events: none; display: none; fill: none;"></path></g></g></g><path class="foreground" d="" style="display: none; fill: none;"></path></g></g></g></svg>